<?xml version="1.0" encoding="UTF-8"?>
<svg version="1.1" xmlns="http://www.w3.org/2000/svg" width="48" height="35">
<path d="M0 0 C1.16692383 -0.0309375 1.16692383 -0.0309375 2.35742188 -0.0625 C8.26595362 -0.10192306 14.2911315 0.51427102 18.87744141 4.66699219 C23.02400436 9.44933196 23.55891459 13.59138255 23.6875 19.6875 C23.73648438 21.00621094 23.78546875 22.32492188 23.8359375 23.68359375 C23.3125 27.25 23.3125 27.25 21.49609375 29.67578125 C16.74741524 32.02390081 12.23282629 31.92634538 7 32 C5.45989258 32.04447266 5.45989258 32.04447266 3.88867188 32.08984375 C1.36320325 32.16032194 -1.16135415 32.2131266 -3.6875 32.25 C-4.0175 33.24 -4.3475 34.23 -4.6875 35.25 C-6.0075 35.25 -7.3275 35.25 -8.6875 35.25 C-8.5 32.4375 -8.5 32.4375 -7.6875 29.25 C-3.19942265 25.35052296 1.9800644 25.70212738 7.625 25.5625 C8.55634766 25.52833984 9.48769531 25.49417969 10.44726562 25.45898438 C12.73555672 25.37684059 15.02348104 25.30758338 17.3125 25.25 C17.6425 24.59 17.9725 23.93 18.3125 23.25 C4.1225 23.25 -10.0675 23.25 -24.6875 23.25 C-24.6875 18.04385283 -24.6481058 17.59080384 -21.5625 13.9375 C-18.56337996 10.31305736 -15.76068537 6.62327367 -13.046875 2.78125 C-9.79779749 -0.87863042 -4.51285516 0.02918581 0 0 Z M-9.6875 6.25 C-9.6875 6.91 -9.6875 7.57 -9.6875 8.25 C-7.7075 8.25 -5.7275 8.25 -3.6875 8.25 C-3.6875 7.59 -3.6875 6.93 -3.6875 6.25 C-6.73663228 5.23888907 -6.73663228 5.23888907 -9.6875 6.25 Z M-13.6875 13.25 C-13.6875 14.24 -13.6875 15.23 -13.6875 16.25 C-13.0275 16.25 -12.3675 16.25 -11.6875 16.25 C-11.6875 15.26 -11.6875 14.27 -11.6875 13.25 C-12.3475 13.25 -13.0075 13.25 -13.6875 13.25 Z " fill="#ED0E45" transform="translate(24.6875,-0.25)"/>
</svg>
